<svg width="680" height="663" viewBox="0 0 680 663" fill="none" xmlns="http://www.w3.org/2000/svg">
<rect width="679.894" height="662.574" fill="url(#paint0_linear_1071_88)"/>
<g clip-path="url(#clip0_1071_88)">
<path d="M435.094 179.958L423.293 191.759C428.396 203.136 431.25 215.736 431.25 228.998C431.25 279.34 390.292 320.299 339.949 320.299C289.606 320.299 248.643 279.345 248.643 228.998C248.643 178.65 289.602 137.696 339.944 137.696C358.932 137.696 376.579 143.523 391.201 153.483L402.511 142.172C384.413 129.073 362.723 122 339.944 122C311.363 122 284.493 133.13 264.283 153.341C244.072 173.551 232.947 200.421 232.947 228.998C232.947 257.575 244.077 284.449 264.287 304.659C284.498 324.87 311.367 336 339.949 336C368.531 336 395.401 324.87 415.611 304.659C435.821 284.449 446.952 257.579 446.952 228.998C446.952 211.651 442.842 194.936 435.098 179.958H435.094Z" fill="#006929"/>
<path d="M342.37 143.319H337.523V162.416H342.37V143.319Z" fill="#00A61C" fill-opacity="0.5"/>
<path d="M342.37 295.584H337.523V314.681H342.37V295.584Z" fill="#00A61C" fill-opacity="0.5"/>
<path d="M281.073 166.697L277.646 170.125L284.897 177.376L288.324 173.949L281.073 166.697Z" fill="#00A61C" fill-opacity="0.5"/>
<path d="M394.841 280.462L391.414 283.89L398.82 291.296L402.247 287.868L394.841 280.462Z" fill="#00A61C" fill-opacity="0.5"/>
<path d="M402.251 170.125L398.823 166.697L391.441 174.08L394.868 177.507L402.251 170.125Z" fill="#00A61C" fill-opacity="0.5"/>
<path d="M288.438 283.936L285.01 280.508L277.645 287.874L281.072 291.301L288.438 283.936Z" fill="#00A61C" fill-opacity="0.5"/>
<path d="M402.251 170.125L398.823 166.697L391.441 174.08L394.868 177.507L402.251 170.125Z" fill="#00A61C" fill-opacity="0.5"/>
<path d="M288.438 283.936L285.01 280.508L277.645 287.874L281.072 291.301L288.438 283.936Z" fill="#00A61C" fill-opacity="0.5"/>
<path d="M254.266 226.572V231.419H273.363V226.572H254.266Z" fill="#00A61C" fill-opacity="0.5"/>
<path d="M406.531 226.577V231.423H425.628V226.577H406.531Z" fill="#00A61C" fill-opacity="0.5"/>
<path d="M441.234 155.181L441.31 159.843C440.592 164.033 438.694 167.919 435.498 171.106L352.782 253.722C345.043 261.451 333.143 260.067 325.784 252.69L285.915 212.692C282.724 209.491 280.754 205.681 280.184 201.386L280.279 196.972C281.24 189.894 285.953 184.125 292.16 181.799C299.224 179.154 306.811 180.719 312.009 185.913L336.249 210.133C338.123 212.003 341.091 212.573 343.184 210.485L409.056 144.608C414.393 139.271 421.927 137.283 429.281 140.041C435.503 142.377 440.207 148.199 441.239 155.177L441.234 155.181Z" fill="#00C24C"/>
</g>
<path d="M50 453.657C50 416.745 78.0037 384.013 117.649 384.013C138.198 384.013 149.84 390.014 156.744 396.927C161.834 401.836 164.018 408.018 164.018 412.017C164.018 430.932 140.924 432.746 140.382 431.654C136.564 422.558 129.471 416.745 118.38 416.745C100.926 416.745 87.6503 431.654 87.6503 449.839C87.6503 463.476 97.108 473.664 110.745 473.664C121.105 473.664 129.291 469.297 134.57 461.3C135.3 460.208 152.754 464.395 152.754 478.212C152.754 482.941 150.209 487.851 145.48 492.58C137.845 500.215 124.389 506.397 107.838 506.397C72.5442 506.397 50 485.848 50 453.657Z" fill="#00C24C"/>
<path d="M222.39 488.573C222.39 483.122 223.663 477.843 226.569 467.293C228.753 459.658 230.025 453.657 230.025 450.742C230.025 444.01 226.388 439.831 219.476 439.831C213.294 439.831 209.476 442.377 205.47 447.836L196.923 488.204C194.198 500.748 189.649 504.935 180.922 504.935H177.285C168.008 504.935 159.462 500.937 162.196 488.204L182.384 392.732C185.109 380.187 189.658 376 198.385 376H202.022C211.479 376 219.845 379.818 217.111 392.732L209.296 429.101C216.028 418.74 226.938 411.647 239.664 411.647C256.576 411.647 266.576 423.108 266.576 440.012C266.576 446.375 264.761 454.199 261.485 465.832C259.121 474.559 257.307 481.652 257.307 485.289C257.307 490.56 259.671 492.744 264.4 493.836C264.942 494.016 261.494 506.2 243.851 506.2C228.761 506.2 222.39 499.106 222.39 488.557V488.573Z" fill="#00C24C"/>
<path d="M275.122 466.932C275.122 433.838 300.401 411.655 331.68 411.655C356.589 411.655 369.683 422.927 369.683 439.298C369.683 456.933 357.861 468.755 318.035 468.755C313.487 468.755 308.758 468.755 303.487 468.394C303.849 470.027 304.399 471.489 305.302 472.761C307.116 479.124 312.937 483.13 322.033 483.13C332.583 483.13 341.13 478.582 346.22 472.039C346.4 471.677 360.037 473.492 360.037 484.222C360.037 488.77 358.222 492.227 354.397 496.044C348.576 501.865 337.484 506.413 321.483 506.413C289.481 506.413 275.114 489.501 275.114 466.949L275.122 466.932ZM314.948 451.112C334.956 451.112 341.68 446.933 341.68 440.932C341.68 436.933 337.862 433.297 330.227 433.297C319.497 433.297 310.77 440.751 306.591 450.751C309.686 451.112 312.412 451.112 314.957 451.112H314.948Z" fill="#00C24C"/>
<path d="M471.329 429.29C471.329 435.111 468.423 439.659 462.963 444.018L442.595 460.57L448.415 472.934C453.686 484.025 456.781 486.939 464.597 487.662C465.689 487.843 464.777 505.847 444.778 505.847C432.595 505.847 427.866 500.207 421.503 485.298L412.226 463.837L407.136 488.204C404.411 500.748 399.862 504.935 391.135 504.935H387.498C378.221 504.935 369.675 500.937 372.409 488.204L392.597 392.732C395.322 380.187 399.871 376 408.598 376H412.235C421.692 376 430.058 379.818 427.324 392.732L415.683 447.467L452.594 411.828C452.955 411.278 471.51 414.192 471.321 429.282L471.329 429.29Z" fill="#00C24C"/>
<path d="M476.419 478.204L494.785 392.74C497.33 380.195 501.878 376.008 510.605 376.008H514.242C523.7 376.008 532.246 379.826 529.332 392.74L510.966 479.666C508.602 490.215 510.416 494.394 516.787 496.397C517.148 496.578 514.423 506.216 497.872 506.216C477.503 506.216 473.143 493.852 476.411 478.212L476.419 478.204Z" fill="#00C24C"/>
<path d="M629.894 428.929C629.894 434.2 628.079 438.017 623.35 445.291L580.799 512.209C569.888 529.483 559.519 540.574 542.615 540.574C533.707 540.574 526.975 538.571 522.977 534.392C519.882 531.486 518.429 527.66 518.429 522.751C518.429 516.569 523.338 510.748 523.88 510.929C525.694 512.743 530.243 514.204 533.699 514.204C540.242 514.204 545.521 511.298 553.337 499.657L555.151 497.111C550.972 495.839 548.419 492.383 547.516 486.562L542.245 445.463C540.612 432.369 535.883 428.371 529.331 427.459C528.601 427.279 532.057 412 550.422 412C557.154 412 562.606 414.365 566.423 419.455C570.422 424.364 572.786 432.18 573.336 443.091L574.97 466.916L606.249 412.181C606.611 411.82 629.885 413.814 629.885 428.912L629.894 428.929Z" fill="#00C24C"/>
<defs>
<linearGradient id="paint0_linear_1071_88" x1="-15.0247" y1="-5.16523e-06" x2="597.631" y2="835.236" gradientUnits="userSpaceOnUse">
<stop stop-color="white"/>
<stop offset="1" stop-color="#EBEBEB"/>
</linearGradient>
<clipPath id="clip0_1071_88">
<rect width="214" height="214" fill="white" transform="translate(232.947 122)"/>
</clipPath>
</defs>
</svg>
