<svg width="340" height="340" viewBox="0 0 340 340" fill="none" xmlns="http://www.w3.org/2000/svg">
<rect width="340" height="340" fill="url(#paint0_linear_1056_1259)"/>
<g clip-path="url(#clip0_1056_1259)">
<path d="M276.707 115L263.472 128.234C269.196 140.994 272.396 155.125 272.396 169.997C272.396 226.457 226.462 272.391 170.003 272.391C113.543 272.391 67.6035 226.462 67.6035 169.997C67.6035 113.533 113.538 67.6035 169.997 67.6035C191.292 67.6035 211.083 74.1382 227.481 85.3084L240.166 72.6232C219.869 57.9323 195.544 50 169.997 50C137.943 50 107.809 62.4825 85.143 85.1484C62.4772 107.814 50 137.948 50 169.997C50 202.046 62.4825 232.186 85.1484 254.852C107.814 277.517 137.948 290 170.003 290C202.057 290 232.191 277.517 254.857 254.852C277.523 232.186 290.005 202.052 290.005 169.997C290.005 150.543 285.396 131.798 276.712 115H276.707Z" fill="#006929"/>
<path d="M172.718 73.9088H167.282V95.3264H172.718V73.9088Z" fill="#00A61C" fill-opacity="0.5"/>
<path d="M172.718 244.674H167.282V266.091H172.718V244.674Z" fill="#00A61C" fill-opacity="0.5"/>
<path d="M103.973 100.128L100.129 103.972L108.261 112.104L112.105 108.26L103.973 100.128Z" fill="#00A61C" fill-opacity="0.5"/>
<path d="M231.564 227.715L227.72 231.558L236.026 239.864L239.87 236.021L231.564 227.715Z" fill="#00A61C" fill-opacity="0.5"/>
<path d="M239.873 103.972L236.03 100.128L227.75 108.408L231.594 112.251L239.873 103.972Z" fill="#00A61C" fill-opacity="0.5"/>
<path d="M112.232 231.61L108.389 227.766L100.128 236.027L103.972 239.871L112.232 231.61Z" fill="#00A61C" fill-opacity="0.5"/>
<path d="M239.873 103.972L236.03 100.128L227.75 108.408L231.594 112.251L239.873 103.972Z" fill="#00A61C" fill-opacity="0.5"/>
<path d="M112.232 231.61L108.389 227.766L100.128 236.027L103.972 239.871L112.232 231.61Z" fill="#00A61C" fill-opacity="0.5"/>
<path d="M73.9087 167.277V172.713H95.3263V167.277H73.9087Z" fill="#00A61C" fill-opacity="0.5"/>
<path d="M244.673 167.282V172.718H266.091V167.282H244.673Z" fill="#00A61C" fill-opacity="0.5"/>
<path d="M283.594 87.2128L283.679 92.4405C282.873 97.1401 280.745 101.498 277.16 105.072L184.395 197.726C175.716 206.394 162.369 204.842 154.117 196.568L109.404 151.711C105.825 148.121 103.616 143.848 102.976 139.031L103.083 134.081C104.16 126.143 109.447 119.673 116.408 117.064C124.33 114.098 132.838 115.853 138.669 121.678L165.853 148.841C167.954 150.938 171.283 151.578 173.63 149.236L247.506 75.3544C253.492 69.3692 261.941 67.1394 270.188 70.2334C277.166 72.8526 282.441 79.3819 283.599 87.2074L283.594 87.2128Z" fill="#00C24C"/>
</g>
<defs>
<linearGradient id="paint0_linear_1056_1259" x1="-7.51355" y1="-2.65054e-06" x2="309.22" y2="420.805" gradientUnits="userSpaceOnUse">
<stop stop-color="white"/>
<stop offset="1" stop-color="#EBEBEB"/>
</linearGradient>
<clipPath id="clip0_1056_1259">
<rect width="240" height="240" fill="white" transform="translate(50 50)"/>
</clipPath>
</defs>
</svg>
